<svg xmlns="http://www.w3.org/2000/svg" viewBox="0 0 100 100" width="1024" height="1024">
  <defs>
    <linearGradient id="g" x1="0" y1="0" x2="0" y2="1"><stop offset="0" stop-color="#7FCBDC"></stop><stop offset="1" stop-color="#3B7FC4"></stop></linearGradient>
    <radialGradient id="r" cx="0.5" cy="0.42" r="0.62"><stop offset="0" stop-color="#EAF8FF" stop-opacity="0.55"></stop><stop offset="1" stop-color="#EAF8FF" stop-opacity="0"></stop></radialGradient>
    
  </defs>
  <g>
    <rect width="100" height="100" fill="url(#g)"></rect>
    <ellipse cx="50" cy="44" rx="62" ry="50" fill="url(#r)"></ellipse>
    <circle cx="74" cy="78" r="3.2" fill="#FFFFFF" opacity="0.5"></circle>
    <circle cx="82" cy="70" r="2.0" fill="#FFFFFF" opacity="0.4"></circle>
    <circle cx="20" cy="30" r="2.6" fill="#F6B968" opacity="0.85"></circle>
    
    
  <path d="M55 47 C70 35 80 31 92 23 C88 38 93 49 84 59 C76 66 63 63 56 58 Z" fill="#235C90"></path>
  <circle cx="44" cy="55" r="22" fill="#235C90"></circle>
  <ellipse cx="39" cy="63" rx="13.5" ry="10.5" fill="#EAF6FF"></ellipse>
  <circle cx="29" cy="59" r="4.2" fill="#F4A24A" opacity="0.55"></circle>
  <circle cx="40.5" cy="49" r="7.6" fill="#FFFFFF"></circle>
  <circle cx="43" cy="50" r="3.7" fill="#16344E"></circle>
  <circle cx="41.3" cy="47.6" r="1.5" fill="#fff"></circle>
  <path d="M31 61 Q39 68 47 60" stroke="#16344E" stroke-width="2.4" fill="none" stroke-linecap="round"></path>
  </g>
</svg>